<?xml version="1.0" encoding="utf-8"?><svg xmlns="http://www.w3.org/2000/svg" xmlns:xlink="http://www.w3.org/1999/xlink"><symbol class="asvg-inline--fa afa-angle-down afa-w-10" viewBox="0 0 320 512" id="angle-down" xmlns="http://www.w3.org/2000/svg"><path d="M143 352.3L7 216.3c-9.4-9.4-9.4-24.6 0-33.9l22.6-22.6c9.4-9.4 24.6-9.4 33.9 0l96.4 96.4 96.4-96.4c9.4-9.4 24.6-9.4 33.9 0l22.6 22.6c9.4 9.4 9.4 24.6 0 33.9l-136 136c-9.2 9.4-24.4 9.4-33.8 0z"/></symbol><symbol viewBox="0 0 66 82" id="arrow_01" xmlns="http://www.w3.org/2000/svg"><path d="M43.994 78.248l.009-1.01c.751.006 1.503.009 2.255.009h.064l-.064 1.01c-.755 0-1.51-.003-2.264-.009zm4.645-1.012a297.94 297.94 0 002.318-.03l.018 1.01c-.776.013-1.551.023-2.327.03l-.009-1.01zm-9.299.934l.026-1.01c.773.02 1.546.036 2.318.049l-.017 1.01c-.776-.013-1.551-.029-2.327-.049zm13.935-1.014c.773-.02 1.546-.043 2.318-.069l.035 1.009c-.775.027-1.55.05-2.326.071l-.027-1.011zm-18.586.856l.043-1.009c.772.033 1.544.063 2.317.089l-.035 1.008c-.775-.026-1.55-.055-2.325-.088zm23.221-1.014c.772-.033 1.544-.07 2.316-.11l.052 1.009c-.775.04-1.549.076-2.325.11l-.043-1.009zm-27.87.777l.06-1.008c.771.046 1.543.088 2.315.128l-.051 1.009c-.775-.04-1.549-.083-2.324-.129zm32.502-1.016c.771-.046 1.543-.096 2.313-.149l.069 1.008c-.774.053-1.548.103-2.322.149l-.06-1.008zm-36.948.715l-.201-.016.084-1.006.209.016c.7.053 1.4.104 2.1.151l-.069 1.008c-.702-.048-1.405-.099-2.123-.153zm-4.853-.553l.161-.997c.758.123 1.52.224 2.278.311l-.114 1.003a50.07 50.07 0 01-2.325-.317zm-4.598-1.066l.307-.963c.688.219 1.429.42 2.201.597l-.225.984a28.102 28.102 0 01-2.283-.618zm-4.34-1.953l.535-.857c.609.38 1.279.732 1.991 1.048l-.409.923a16.947 16.947 0 01-2.117-1.114zm-3.558-3.226l.81-.603c.436.585.939 1.136 1.497 1.636l-.675.752a12.157 12.157 0 01-1.632-1.785zm3.988-2.437l.268-.974a9.516 9.516 0 002.174.348l-.038 1.009a10.57 10.57 0 01-2.404-.383zm-5.947-1.977l.992-.189c.138.726.359 1.433.656 2.102l-.923.41a10.64 10.64 0 01-.725-2.323zm10.532 1.115a5.33 5.33 0 001.88-.953l.629.79c-.651.518-1.403.9-2.235 1.135l-.274-.972zm-8.895-1.271l.607-.807c.587.442 1.225.835 1.896 1.168l-.449.904a13.134 13.134 0 01-2.054-1.265zm12.09-1.298c.303-.615.48-1.303.526-2.042l1.008.062a6.338 6.338 0 01-.628 2.426l-.906-.446zM4.556 62.727l.801-.615c.257.333.525.659.803.972a9.91 9.91 0 01.334-1.659l.969.286a8.947 8.947 0 00-.352 2.164l-.321-.013-.664.66a18.626 18.626 0 01-1.57-1.795zm-2.427-4.085l.921-.414c.313.695.663 1.372 1.041 2.011l-.869.515a21.452 21.452 0 01-1.093-2.112zm17.258.06l.823-.584a7.298 7.298 0 011.066 2.242l-.972.275a6.294 6.294 0 00-.917-1.933zm-11.885.485a7.828 7.828 0 011.627-1.858l.647.775a6.858 6.858 0 00-1.42 1.623l-.854-.54zm8.375-2.71l.194-.991a6.905 6.905 0 012.371.94l-.589.819a5.87 5.87 0 00-1.976-.768zm-4.649-.431a8.69 8.69 0 012.374-.642l.121 1.003a7.666 7.666 0 00-2.097.567l-.398-.928zM.644 54.142l.985-.221c.167.745.37 1.482.603 2.191l-.96.316a24.782 24.782 0 01-.628-2.286zm-.619-4.687l1.009-.045c.034.761.101 1.525.198 2.271l-1.001.131a27.84 27.84 0 01-.206-2.357zm-.008-2.364c.03-.785.091-1.578.183-2.356l1.003.119a28.704 28.704 0 00-.178 2.274l-1.008-.037zm.554-4.689a28.68 28.68 0 01.558-2.297l.971.279a28.076 28.076 0 00-.538 2.217l-.991-.199zm1.298-4.539c.268-.724.568-1.457.89-2.18l.922.411a34.934 34.934 0 00-.865 2.119l-.947-.35zm1.914-4.299c.361-.694.742-1.378 1.142-2.053l.869.514c-.39.659-.762 1.327-1.115 2.006l-.896-.467zm2.389-4.042c.431-.651.877-1.293 1.338-1.926l.817.595c-.452.62-.89 1.25-1.312 1.888l-.843-.557zm2.754-3.791a67.21 67.21 0 011.483-1.81l.77.654c-.498.586-.985 1.18-1.461 1.782l-.792-.626zm3.024-3.569a91.682 91.682 0 011.587-1.714l.733.695a89.64 89.64 0 00-1.569 1.695l-.751-.676zm3.214-3.389c.548-.553 1.101-1.1 1.656-1.642l.705.723c-.551.538-1.1 1.081-1.644 1.63l-.717-.711z"/><path d="M61.77 81.401l-.728-.701 3.46-3.582-3.825-3.189.648-.776 4.658 3.885zM20.219 14.178l-.865-.521a20.316 20.316 0 01-1.273 1.873l.801.615c.475-.62.924-1.282 1.337-1.967zm2.01-4.291l-.952-.337c-.255.72-.544 1.428-.86 2.104l.915.428c.33-.706.632-1.444.897-2.195zm1.172-4.581l-.996-.165a26.494 26.494 0 01-.467 2.231l.978.249a27.53 27.53 0 00.485-2.315zm.289-2.345c.064-.783.097-1.578.098-2.361l-1.01-.001a28.485 28.485 0 01-.094 2.279l1.006.083z"/></symbol><symbol viewBox="0 0 490 490" id="arrow_02" xmlns="http://www.w3.org/2000/svg"><path d="M474.023 260.978H165.107c-8.82 0-15.978-7.158-15.978-15.978s7.158-15.978 15.978-15.978h308.916c8.82 0 15.978 7.158 15.978 15.978s-7.158 15.978-15.978 15.978z"/><path d="M250.327 346.194c-4.092 0-8.18-1.553-11.293-4.685l-85.216-85.216c-6.242-6.245-6.242-16.364 0-22.606l85.216-85.216c6.242-6.242 16.361-6.242 22.606 0 6.241 6.242 6.241 16.361 0 22.602L187.713 245l73.927 73.927c6.241 6.242 6.241 16.361 0 22.602a15.996 15.996 0 01-11.313 4.665z"/><path d="M234.349 479.349C105.138 479.349 0 374.211 0 245S105.138 10.651 234.349 10.651c96.954 0 182.556 58.331 218.113 148.622 3.238 8.2-.811 17.468-9.011 20.726-8.204 3.199-17.472-.788-20.73-9.031-30.7-77.976-104.647-128.361-188.373-128.361C122.755 42.607 31.957 133.41 31.957 245s90.798 202.393 202.393 202.393c83.726 0 157.672-50.385 188.373-128.337 3.238-8.247 12.506-12.229 20.73-9.035 8.2 3.238 12.249 12.526 9.011 20.73-35.559 90.267-121.161 148.598-218.115 148.598z"/></symbol><symbol viewBox="0 0 490 490" id="arrow_03" xmlns="http://www.w3.org/2000/svg"><path d="M15.978 229.022h308.916c8.82 0 15.978 7.158 15.978 15.978s-7.158 15.978-15.978 15.978H15.978C7.158 260.978 0 253.82 0 245s7.158-15.978 15.978-15.978z"/><path d="M239.674 143.806c4.092 0 8.18 1.553 11.293 4.685l85.216 85.216c6.242 6.245 6.242 16.364 0 22.606l-85.216 85.216c-6.242 6.242-16.361 6.242-22.606 0-6.242-6.242-6.242-16.361 0-22.602L302.288 245l-73.927-73.927c-6.242-6.242-6.242-16.361 0-22.602a16 16 0 0111.313-4.665z"/><path d="M255.652 10.651c129.211 0 234.349 105.138 234.349 234.349S384.863 479.349 255.652 479.349c-96.954 0-182.556-58.331-218.113-148.622-3.238-8.2.811-17.468 9.011-20.726 8.204-3.199 17.472.788 20.73 9.031 30.7 77.976 104.647 128.361 188.373 128.361 111.594 0 202.393-90.802 202.393-202.393s-90.8-202.393-202.394-202.393c-83.726 0-157.672 50.385-188.373 128.337-3.238 8.247-12.506 12.229-20.73 9.035-8.2-3.238-12.249-12.526-9.011-20.73C73.096 68.982 158.698 10.651 255.652 10.651z"/></symbol><symbol viewBox="0 0 490 490" id="arrow_04" xmlns="http://www.w3.org/2000/svg"><path d="M86.1 229.05H395c8.8 0 16 7.2 16 16s-7.2 16-16 16H86.1c-8.8 0-16-7.2-16-16s7.2-16 16-16z"/><path d="M309.8 143.85c4.1 0 8.2 1.6 11.3 4.7l85.2 85.2c6.2 6.2 6.2 16.4 0 22.6l-85.2 85.2c-6.2 6.2-16.4 6.2-22.6 0-6.2-6.2-6.2-16.4 0-22.6l73.9-73.9-73.9-73.9c-6.2-6.2-6.2-16.4 0-22.6 3.1-3.1 7.2-4.7 11.3-4.7z"/></symbol><symbol viewBox="0 0 80 150" id="arrow_left" xmlns="http://www.w3.org/2000/svg"><path fill-rule="evenodd" clip-rule="evenodd" d="M80.017 4.916l-4.64-4.64L.386 75.266l74.991 74.99 4.64-4.64-70.351-70.35 70.351-70.35z"/></symbol><symbol viewBox="0 0 80 150" id="arrow_right" xmlns="http://www.w3.org/2000/svg"><path fill-rule="evenodd" clip-rule="evenodd" d="M70.737 75.266L.386 145.617l4.64 4.64 74.991-74.99L5.026.276l-4.64 4.64 70.351 70.35z"/></symbol><symbol viewBox="0 0 512 512" id="baby" xmlns="http://www.w3.org/2000/svg"><path d="M467 96.294c-30.824 0-37.753 52.838-41.17 85.806-3.786 36.528-3.83 72.391-3.83 73.9v10.677c-19.684-.875-42.933 10.135-52.801 14.806-24.839 11.756-47.157 26.413-48.16 27.075C289.706 329.446 271 364.399 271 402.057V512h120v-15c0-13.82 7.458-28.344 19-37l36-27c41.327-30.996 66-80.341 66-132v-45c0-1.509-.044-37.372-3.83-73.9-3.303-31.86-10.098-85.806-41.17-85.806zM482 301c0 42.266-20.187 82.64-54 108l-36 27c-14.993 11.245-25.534 28.045-29.386 46H301v-79.943c0-27.604 13.712-53.226 36.614-68.494.179-.118 18.129-11.911 38.854-22.257 28.414-14.184 40.517-15.063 44.58-14.715-1.294 3.859-6.866 14.551-30.839 34.866-17.612 14.926-35.647 26.863-35.824 26.98l16.51 25.049c.72-.475 17.842-11.796 35.92-26.802C429.047 338.23 447.156 320.88 452 295v-38.999c0-.301.038-30.464 2.872-62.483 3.464-39.146 8.803-56.165 12.128-63.292 3.325 7.128 8.664 24.146 12.128 63.292C481.962 225.538 482 255.7 482 256v45zM67 433l36 27c11.103 8.327 18 22.505 18 37v15h120V402.057c0-37.657-18.706-72.61-50.104-93.542-.938-.618-23.256-15.276-48.094-27.031-9.87-4.671-33.147-15.686-52.801-14.806V256c0-1.509-.043-37.372-3.83-73.9C82.867 150.24 76.072 96.294 45 96.294c-30.824 0-37.753 52.838-41.17 85.806C.043 218.628 0 254.491 0 256v45c0 51.189 25.047 100.535 67 132zM30 256c0-.299.033-30.281 2.855-62.292 3.463-39.28 8.814-56.343 12.145-63.482 3.326 7.128 8.664 24.146 12.128 63.293C59.961 225.538 60 255.7 60 256v39c4.842 25.837 22.423 42.79 45.185 61.684 18.078 15.006 35.2 26.327 35.92 26.802l16.51-25.048c-.178-.117-18.013-11.911-35.628-26.814-24.138-20.422-29.737-31.163-31.035-35.032 4.052-.346 16.099.526 44.351 14.601 20.745 10.334 38.906 22.254 39.019 22.328 22.968 15.312 36.68 40.933 36.68 68.537V482h-61.514c-3.687-18.253-13.913-35.07-28.486-46l-36-27c-34.439-25.829-55-66.203-55-108v-45H30z"/><path d="M161.414 210.768c10.409 22.105 27.953 39.741 49.859 50.145C213.729 283.422 232.848 301 256 301c23.153 0 42.27-17.577 44.727-40.087 21.907-10.404 39.453-28.041 49.861-50.146C373.255 208.463 391 189.265 391 166c0-23.262-17.742-42.459-40.405-44.767C333.222 84.217 296.402 60 256 60h-30c-8.271 0-15-6.729-15-15s6.729-15 15-15h15V0h-15c-24.813 0-45 20.187-45 45 0 13.603 6.076 25.806 15.646 34.065-14.885 10.528-27.166 24.963-35.241 42.168C138.742 123.541 121 142.738 121 166c0 23.265 17.747 42.463 40.414 44.768zM256 271c-8.271 0-15-6.729-15-15s6.729-15 15-15 15 6.729 15 15-6.729 15-15 15zm-90-120h16.104c.199-.285 15.666-61 73.896-61 59.619 0 72.775 59.4 73.895 61H346c8.271 0 15 6.729 15 15s-6.729 15-15 15h-16.105c-2.248 4.291-7.047 32.491-36.578 49.877C285.223 218.894 271.516 211 256 211s-29.223 7.894-37.316 19.876c-29.538-17.391-34.336-45.597-36.578-49.876H166c-8.271 0-15-6.729-15-15s6.729-15 15-15z"/></symbol><symbol class="isvg-inline--fa ifa-facebook-f ifa-w-10" viewBox="0 0 320 512" id="facebook" xmlns="http://www.w3.org/2000/svg"><path d="M279.14 288l14.22-92.66h-88.91v-60.13c0-25.35 12.42-50.06 52.24-50.06h40.42V6.26S260.43 0 225.36 0c-73.22 0-121.08 44.38-121.08 124.72v70.62H22.89V288h81.39v224h100.17V288z"/></symbol><symbol viewBox="0 0 512 512" id="family" xmlns="http://www.w3.org/2000/svg"><path d="M421 75c0-41.355-33.645-75-75-75s-75 33.645-75 75 33.645 75 75 75 75-33.645 75-75zm-75 45c-24.813 0-45-20.187-45-45s20.187-45 45-45 45 20.187 45 45-20.187 45-45 45zM61 497c0 8.284 6.716 15 15 15h360c8.284 0 15-6.716 15-15V359.901c18.829-25.07 30-56.205 30-89.901 0-66.168-53.832-120-120-120h-75c-11.515 0-22.033 4.347-30 11.486-7.967-7.139-18.485-11.486-30-11.486h-75c-66.168 0-120 53.832-120 120 0 33.696 11.171 64.831 30 89.901V497zm30-107.076C116.087 408.799 147.259 420 181 420v62H91v-92.076zM241 375c0-17.872-10.473-33.342-25.604-40.599A14.95 14.95 0 01226 330h60a14.95 14.95 0 0110.604 4.401C281.473 341.658 271 357.128 271 375c0 19.555 12.541 36.228 30 42.42V482h-90v-64.58c17.459-6.192 30-22.865 30-42.42zm90 107v-62c33.741 0 64.913-11.201 90-30.076V482h-90zm-75-272c16.542 0 30 13.458 30 30s-13.458 30-30 30-30-13.458-30-30 13.458-30 30-30zm-105-30h75c3.684 0 7.057 1.34 9.671 3.552C212.563 191.9 196 214.049 196 240c0 33.084 26.916 60 60 60s60-26.916 60-60c0-25.951-16.563-48.1-39.671-56.448A14.924 14.924 0 01286 180h75c49.626 0 90 40.374 90 90 0 66.168-53.832 120-120 120h-15c-8.271 0-15-6.729-15-15s6.729-15 15-15h15c49.626 0 90-40.374 90-90 0-8.284-6.716-15-15-15s-15 6.716-15 15c0 33.084-26.916 60-60 60h-2.58c-6.192-17.459-22.865-30-42.42-30h-60c-19.555 0-36.228 12.541-42.42 30H181c-33.084 0-60-26.916-60-60 0-8.284-6.716-15-15-15s-15 6.716-15 15c0 49.626 40.374 90 90 90h15c8.271 0 15 6.729 15 15s-6.729 15-15 15h-15c-66.168 0-120-53.832-120-120 0-49.626 40.374-90 90-90zm90-105c0-41.355-33.645-75-75-75S91 33.645 91 75s33.645 75 75 75 75-33.645 75-75zm-75 45c-24.813 0-45-20.187-45-45s20.187-45 45-45 45 20.187 45 45-20.187 45-45 45z"/></symbol><symbol viewBox="0 0 512 512" id="handshake" xmlns="http://www.w3.org/2000/svg"><path d="M469.04 58.159C409.896-1.319 312.287 1.638 255.976 63.463 199.661 1.64 102.056-1.32 42.912 58.16c-58.814 58.571-56.81 155.019 3.788 211.55-31.002 29.609-13.241 82.816 28.956 88.003-2.528 28.895 22.065 55.392 51.156 54.901 1.784 31.809 33.709 54.578 64.318 46.172 10.042 37.896 58.315 50.845 86.009 22.954 15.729-15.635 28.237-25.494 29.035-49.173 25.989-.724 48.476-23.516 48.872-49.491 26.239-.405 49.1-23.274 49.504-49.505 27.22-.414 50.822-24.982 49.555-52.716l14.933-14.932c57.281-57.282 57.281-150.484.002-207.764zM69.217 293.618l14.026-14.026a18.533 18.533 0 0113.147-5.437c16.328-.108 24.851 20.079 13.145 31.73l-14.026 14.026c-18.156 16.714-43.009-8.13-26.292-26.293zm39.109 67.603c0-4.967 1.935-9.636 5.446-13.147l14.034-14.033a18.467 18.467 0 0113.139-5.438c16.467-.028 24.814 20.112 13.146 31.739l-12.376 12.376c-3.783 4.287-8.979 7.188-14.797 7.095-9.992.204-18.799-8.599-18.592-18.592zm56.601 60.999c-7.212-6.92-7.212-19.371 0-26.291l12.376-12.377c7.215-8.566 19.882-9.681 27.944-1.65 7.248 7.249 7.248 19.042 0 26.293l-14.027 14.027c-7.249 7.251-19.044 7.25-26.293-.002zm103.027 22.28l-14.026 14.026a18.473 18.473 0 01-13.146 5.446 18.472 18.472 0 01-13.147-5.446c-7.211-6.921-7.214-19.373.001-26.293l14.025-14.026c7.248-7.249 19.044-7.249 26.293-.001 7.212 6.922 7.213 19.373 0 26.294zm147.897-149.134c-6.921 7.212-19.373 7.213-26.293 0l-73.049-73.049-23.212 23.212 73.049 73.049c7.248 7.249 7.248 19.043 0 26.293-7.249 7.252-19.043 7.249-26.293 0l-71.81-71.81-1.239-1.239-23.212 23.212 1.239 1.239 71.81 71.81c7.249 7.249 7.249 19.044 0 26.294-7.249 7.249-19.044 7.249-26.294 0l-.014.014c-13.338-12.895-31.978-17.14-48.814-12.737-5.36-21.9-27.375-38.48-49.514-37.998-1.073-23.572-21.002-44.866-44.552-47.41 3.108-40.443-41.31-68.295-76.363-48.372-48.819-43.608-51.826-120.16-5.164-166.502 46.394-46.719 123.05-43.623 166.639 5.304l-40.581 40.581 32.518 32.518c24.978 24.981 63.47 28.418 92.168 10.314l98.983 98.984c7.246 7.248 7.246 19.043-.002 26.293zm29.977-52.657l-5.002 5.001a52.824 52.824 0 00-1.762-1.849L318.161 124.956l-11.607 11.606c-16.166 16.166-42.472 16.169-58.642 0l-9.305-9.305 45.885-45.885c111.461-102.589 263.903 49.949 161.336 161.337z"/></symbol><symbol class="lsvg-inline--fa lfa-instagram lfa-w-14" viewBox="0 0 448 512" id="instagram" xmlns="http://www.w3.org/2000/svg"><path d="M224.1 141c-63.6 0-114.9 51.3-114.9 114.9s51.3 114.9 114.9 114.9S339 319.5 339 255.9 287.7 141 224.1 141zm0 189.6c-41.1 0-74.7-33.5-74.7-74.7s33.5-74.7 74.7-74.7 74.7 33.5 74.7 74.7-33.6 74.7-74.7 74.7zm146.4-194.3c0 14.9-12 26.8-26.8 26.8-14.9 0-26.8-12-26.8-26.8s12-26.8 26.8-26.8 26.8 12 26.8 26.8zm76.1 27.2c-1.7-35.9-9.9-67.7-36.2-93.9-26.2-26.2-58-34.4-93.9-36.2-37-2.1-147.9-2.1-184.9 0-35.8 1.7-67.6 9.9-93.9 36.1s-34.4 58-36.2 93.9c-2.1 37-2.1 147.9 0 184.9 1.7 35.9 9.9 67.7 36.2 93.9s58 34.4 93.9 36.2c37 2.1 147.9 2.1 184.9 0 35.9-1.7 67.7-9.9 93.9-36.2 26.2-26.2 34.4-58 36.2-93.9 2.1-37 2.1-147.8 0-184.8zM398.8 388c-7.8 19.6-22.9 34.7-42.6 42.6-29.5 11.7-99.5 9-132.1 9s-102.7 2.6-132.1-9c-19.6-7.8-34.7-22.9-42.6-42.6-11.7-29.5-9-99.5-9-132.1s-2.6-102.7 9-132.1c7.8-19.6 22.9-34.7 42.6-42.6 29.5-11.7 99.5-9 132.1-9s102.7-2.6 132.1 9c19.6 7.8 34.7 22.9 42.6 42.6 11.7 29.5 9 99.5 9 132.1s2.7 102.7-9 132.1z"/></symbol><symbol class="msvg-inline--fa mfa-long-arrow-alt-right mfa-w-14" viewBox="0 0 448 512" id="long-arrow" xmlns="http://www.w3.org/2000/svg"><path d="M313.941 216H12c-6.627 0-12 5.373-12 12v56c0 6.627 5.373 12 12 12h301.941v46.059c0 21.382 25.851 32.09 40.971 16.971l86.059-86.059c9.373-9.373 9.373-24.569 0-33.941l-86.059-86.059c-15.119-15.119-40.971-4.411-40.971 16.971V216z"/></symbol><symbol viewBox="0 0 512 512" id="old-woman" xmlns="http://www.w3.org/2000/svg"><path d="M447.607 495.896l-14.864-201.429c-1.363-18.985-13.778-34.578-30.5-40.959 1.772-11.636-2.185-23.867-11.415-32.201-107.804-111.809-100.184-104.038-104.29-107.847 19.453-9.934 32.813-30.16 32.813-53.46 0-33.084-26.916-60-60-60-39.719 0-68.601 38.104-57.703 76.397-54.69-4.146-99.454 27.543-117.066 72.16l-19.183 48.594a14.999 14.999 0 00.161 11.407l13.8 32.26c-.014 1.158-.009 163.376-.009 165.181 0 7.803 5.982 14.302 13.758 14.948l31.12 2.586V497c0 8.284 6.716 15 15 15h120c8.284 0 15-6.716 15-15v-61.05c8.285 0 15-6.722 15-15V239.166l54.178 36.438c-7.378 13.825-5.495 24.614-4.526 38.11.593 8.263 7.784 14.483 16.035 13.888 8.263-.593 14.481-7.772 13.888-16.035-.885-12.328-2.489-18.426 3.329-25.136 10.058-11.601 29.564-5.477 30.69 10.213l14.866 201.459c.607 8.226 7.756 14.46 16.063 13.855 8.261-.608 14.464-7.8 13.855-16.062zM259.352 30c16.542 0 30 13.458 30 30s-13.458 30-30 30-30-13.458-30-30 13.458-30 30-30zm-150 280.747c8.677 16.089 27.988 23.116 44.978 16.351 17.55-6.987 26.743-26.539 20.928-44.51l-23.079-71.337 20.771-38.066c3.968-7.272 1.29-16.384-5.983-20.353-7.271-3.966-16.383-1.29-20.352 5.983l-23.861 43.73a14.998 14.998 0 00-1.104 11.802l25.065 77.476c2.15 6.649-6.995 10.945-10.74 5.063L95.568 202.43l16.918-42.857c25.978-65.809 110.686-68.929 157.939-19.918 105.27 109.181 99.399 103.141 100.199 103.833 2.846 2.462 2.794 7.072-.436 9.382-.989.331-1.961.701-2.923 1.096-2.767.266 3 3.55-84.625-55.384-9.973-6.767-23.462.514-23.412 12.47v193.601l-149.877-12.457.001-81.449zm44.877 115.281l30 2.493V482h-30v-55.972zm60 55.972v-50.985l30 2.493V482h-30z"/></symbol><symbol viewBox="0 0 512 512" id="star" xmlns="http://www.w3.org/2000/svg"><path d="M409.617 256l68.125-118a9.987 9.987 0 000-10 9.996 9.996 0 00-8.66-5H332.828L264.703 5c-1.789-3.094-5.09-5-8.66-5a9.996 9.996 0 00-8.66 5l-68.129 118h-29.547c-5.52 0-10 4.477-10 10s4.48 10 10 10h18l-53.695 93-53.692-93h18.723c5.52 0 10-4.477 10-10s-4.48-10-10-10H43c-3.574 0-6.875 1.906-8.66 5s-1.785 6.906 0 10l68.125 118L34.34 374c-1.785 3.094-1.785 6.906 0 10s5.086 5 8.66 5h136.254l68.129 118a9.996 9.996 0 008.66 5c3.57 0 6.871-1.906 8.66-5l68.125-118h136.254a9.996 9.996 0 008.66-5 9.987 9.987 0 000-10l-68.125-118zm42.145-113l-53.691 93-53.695-93h107.386zM256.043 30l53.691 93H202.348l53.695-93zm-65.242 113h130.48l65.242 113-65.242 113h-130.48l-65.242-113 65.242-113zM60.32 369l53.691-93 53.695 93H60.32zm195.723 113l-53.695-93h107.387l-53.692 93zm88.332-113l53.695-93 53.691 93H344.375z"/><path d="M115.711 143c2.629 0 5.211-1.07 7.07-2.93s2.93-4.441 2.93-7.07-1.07-5.211-2.93-7.07-4.441-2.93-7.07-2.93c-2.641 0-5.211 1.07-7.078 2.93-1.859 1.859-2.922 4.441-2.922 7.07s1.063 5.211 2.922 7.07a10.087 10.087 0 007.078 2.93zm170.488 204.656a10.004 10.004 0 0013.66-3.66l29.352-50.844c2.762-4.781 1.125-10.898-3.66-13.66-4.785-2.758-10.898-1.121-13.66 3.66l-29.352 50.844c-2.762 4.785-1.125 10.899 3.66 13.66zM339.109 266c2.641 0 5.211-1.07 7.082-2.93 1.859-1.859 2.918-4.441 2.918-7.07s-1.059-5.211-2.918-7.07-4.441-2.93-7.082-2.93c-2.629 0-5.207 1.07-7.066 2.93-1.863 1.859-2.934 4.441-2.934 7.07s1.07 5.211 2.934 7.07a10.066 10.066 0 007.066 2.93z"/></symbol><symbol class="psvg-inline--fa pfa-twitter pfa-w-16" viewBox="0 0 512 512" id="twitter" xmlns="http://www.w3.org/2000/svg"><path d="M459.37 151.716c.325 4.548.325 9.097.325 13.645 0 138.72-105.583 298.558-298.558 298.558-59.452 0-114.68-17.219-161.137-47.106 8.447.974 16.568 1.299 25.34 1.299 49.055 0 94.213-16.568 130.274-44.832-46.132-.975-84.792-31.188-98.112-72.772 6.498.974 12.995 1.624 19.818 1.624 9.421 0 18.843-1.3 27.614-3.573-48.081-9.747-84.143-51.98-84.143-102.985v-1.299c13.969 7.797 30.214 12.67 47.431 13.319-28.264-18.843-46.781-51.005-46.781-87.391 0-19.492 5.197-37.36 14.294-52.954 51.655 63.675 129.3 105.258 216.365 109.807-1.624-7.797-2.599-15.918-2.599-24.04 0-57.828 46.782-104.934 104.934-104.934 30.213 0 57.502 12.67 76.67 33.137 23.715-4.548 46.456-13.32 66.599-25.34-7.798 24.366-24.366 44.833-46.132 57.827 21.117-2.273 41.584-8.122 60.426-16.243-14.292 20.791-32.161 39.308-52.628 54.253z"/></symbol><symbol class="qsvg-inline--fa qfa-youtube qfa-w-18" viewBox="0 0 576 512" id="youtube" xmlns="http://www.w3.org/2000/svg"><path d="M549.655 124.083c-6.281-23.65-24.787-42.276-48.284-48.597C458.781 64 288 64 288 64S117.22 64 74.629 75.486c-23.497 6.322-42.003 24.947-48.284 48.597-11.412 42.867-11.412 132.305-11.412 132.305s0 89.438 11.412 132.305c6.281 23.65 24.787 41.5 48.284 47.821C117.22 448 288 448 288 448s170.78 0 213.371-11.486c23.497-6.321 42.003-24.171 48.284-47.821 11.412-42.867 11.412-132.305 11.412-132.305s0-89.438-11.412-132.305zm-317.51 213.508V175.185l142.739 81.205-142.739 81.201z"/></symbol></svg>